# xmcd
#
# Track frame offsets: 
#        150
#        16770
#        29520
#        43130
#        58789
#        73072
#        88140
#        103317
#        115927
#        130867
#
# Disc length: 1951 seconds
#
# Revision: 3
# Processed by: cddbd v1.4PL0 Copyright (c) Steve Scherf et al.
# Submitted via: ExactAudioCopy v0.90b3
#
DISCID=8e079d0a
DTITLE=Tracy Byrd - Big Love
DYEAR=1996
DGENRE=Country
TTITLE0=Big Love
TTITLE1=Cowgirl
TTITLE2=Good Ol' Fashioned Love
TTITLE3=Don't Take Her She's All I Got
TTITLE4=If I Stay
TTITLE5=Don't Love Make a Diamond Shine
TTITLE6=Tucson Too Soon
TTITLE7=I Don't Believe That's How You Feel
TTITLE8=Driving Me Out of Your Mind 
TTITLE9=I Love You,That's All
EXTD=YEAR: 1996 ID3G:   2
EXTT0=
EXTT1=
EXTT2=
EXTT3=
EXTT4=
EXTT5=
EXTT6=
EXTT7=
EXTT8=
EXTT9=
PLAYORDER=
